<svg width="64" height="64" viewBox="0 0 64 64" fill="none" xmlns="http://www.w3.org/2000/svg">
<path d="M4 10V8C2.89543 8 2 8.89543 2 10H4ZM4 54H2C2 55.1046 2.89543 56 4 56V54ZM4 10V12H26V10V8H4V10ZM26 54V52H4V54V56H26V54ZM4 54H6V10H4H2V54H4Z" fill="black"/>
<path d="M60 10H62C62 8.89543 61.1046 8 60 8V10ZM60 54V56C61.1046 56 62 55.1046 62 54H60ZM38 10V12H60V10V8H38V10ZM60 10H58V54H60H62V10H60ZM60 54V52H38V54V56H60V54Z" fill="black"/>
<line x1="32" y1="2" x2="32" y2="62" stroke="black" stroke-width="4"/>
</svg>
