<svg version="1.0" xmlns="http://www.w3.org/2000/svg"
 width="1024" height="1024" viewBox="0 0 1024 1024"
 preserveAspectRatio="xMidYMid meet" fill="currentColor" stroke="none">

<g transform="translate(0.000000,1024.000000) scale(0.100000,-0.100000)">
<path d="M6240 9134 c-424 -20 -1034 -43 -1455 -54 -727 -19 -1525 -52 -1620
-66 -84 -13 -138 -57 -164 -133 -6 -20 -20 -211 -31 -430 -37 -737 -124 -2048
-146 -2196 -8 -56 -25 -78 -95 -125 -114 -78 -253 -130 -346 -130 -45 0 -134
26 -144 42 -3 5 2 39 12 76 33 117 52 278 46 382 -7 113 -31 197 -99 344 -90
195 -91 273 -8 460 63 143 80 210 80 313 0 153 -63 257 -186 303 -82 31 -204
25 -287 -13 -121 -55 -249 -213 -303 -372 -35 -106 -44 -256 -20 -369 9 -44
15 -80 14 -81 -2 -1 -37 2 -78 5 -153 14 -292 -5 -389 -53 -63 -31 -142 -106
-174 -166 -31 -57 -57 -162 -57 -234 0 -38 -8 -62 -40 -114 -59 -99 -81 -165
-87 -268 -6 -101 9 -181 52 -265 23 -45 24 -54 14 -95 -6 -25 -9 -78 -7 -118
14 -220 219 -393 509 -430 63 -8 107 -8 157 0 66 10 74 9 117 -12 115 -59 256
-55 393 10 40 19 86 44 101 54 25 18 31 19 67 7 143 -49 443 -13 616 75 40 20
63 27 67 20 4 -6 2 -64 -5 -129 -7 -64 -22 -205 -34 -312 -41 -386 -125 -1081
-196 -1615 -39 -292 -39 -340 -2 -408 27 -49 95 -103 146 -116 46 -12 159 -23
637 -61 209 -17 490 -39 625 -50 724 -58 1609 -116 2115 -140 121 -5 261 -12
310 -15 156 -9 493 -24 696 -31 170 -6 202 -4 247 10 65 22 144 92 167 148 11
27 30 155 51 338 48 425 60 519 66 526 9 8 43 -11 113 -63 107 -80 210 -119
340 -129 140 -11 269 22 420 109 98 56 249 209 297 302 113 218 80 406 -88
494 -65 35 -68 57 -15 117 55 62 73 122 72 240 l-1 96 56 62 c206 225 310 513
270 742 -28 161 -91 277 -221 409 -188 190 -469 336 -827 430 -102 27 -108 29
-108 54 0 26 8 124 55 741 14 179 30 390 36 470 13 173 7 203 -55 287 -113
152 -896 973 -1010 1060 -119 89 -148 92 -666 67z m367 -226 c4 -7 8 -213 8
-458 0 -438 0 -446 22 -500 26 -62 78 -132 125 -166 91 -68 217 -83 685 -84
162 0 294 -4 297 -9 16 -25 -246 -2744 -267 -2772 -169 -227 -241 -383 -273
-591 -31 -200 2 -388 87 -494 21 -27 46 -59 54 -70 15 -20 12 -57 -32 -450
l-47 -429 -28 -29 -29 -29 -162 7 c-1413 59 -1912 88 -2974 171 -243 19 -619
48 -835 65 -479 36 -493 38 -521 60 -31 26 -28 71 27 475 134 973 246 2066
351 3415 23 305 62 927 85 1360 24 468 11 430 154 430 50 0 260 7 466 15 206
8 598 21 870 30 272 8 693 22 935 31 242 8 548 19 680 23 132 4 257 9 277 9
20 1 40 -4 45 -10z m459 -301 c334 -339 595 -623 625 -678 l11 -22 -353 6
c-195 4 -371 11 -392 16 -21 5 -54 20 -72 33 -59 39 -65 64 -65 265 0 251 12
603 20 603 4 0 106 -100 226 -223z m-5015 -863 c32 -28 49 -76 49 -136 0 -66
-16 -118 -74 -246 -56 -121 -80 -225 -71 -302 9 -73 40 -171 80 -250 75 -150
101 -273 91 -430 -12 -197 -66 -350 -161 -449 -30 -32 -55 -65 -55 -74 0 -9
11 -24 24 -32 22 -15 27 -15 62 0 21 8 57 32 82 52 l44 36 -7 -44 c-4 -24 -14
-64 -22 -89 -46 -141 -173 -260 -322 -304 -48 -14 -121 -22 -121 -13 0 2 21
25 46 52 26 26 60 78 78 114 29 61 31 74 31 171 0 99 2 107 27 140 15 20 40
63 55 95 23 50 27 74 27 140 0 44 -6 97 -12 117 -13 35 -12 38 22 83 42 55 76
157 76 230 0 150 -107 318 -249 389 -57 29 -89 80 -116 183 -60 229 73 522
265 584 42 14 127 4 151 -17z m-534 -843 c157 -41 258 -108 299 -196 37 -79
27 -192 -21 -245 -17 -19 -18 -19 -44 -1 -49 35 -130 71 -208 93 -104 29 -294
32 -336 5 -15 -9 -27 -26 -27 -36 0 -34 33 -50 143 -66 185 -27 320 -81 393
-157 38 -38 39 -41 39 -112 0 -61 -4 -78 -25 -109 -57 -85 -143 -115 -349
-123 -146 -5 -171 -12 -171 -43 0 -59 120 -96 309 -95 l133 1 -5 -48 c-7 -58
-26 -96 -69 -139 -47 -47 -91 -63 -193 -69 -89 -6 -90 -6 -93 -33 -3 -25 -6
-26 -40 -21 -174 24 -295 93 -346 195 -32 64 -34 127 -5 203 l21 55 -30 38
c-66 84 -87 165 -72 275 12 84 43 152 100 221 40 48 40 49 40 133 0 102 13
149 52 198 34 40 84 69 161 90 68 20 245 12 344 -14z m6483 -1008 c134 -40
317 -126 377 -177 49 -43 82 -93 93 -143 18 -76 -35 -193 -136 -301 l-49 -52
-64 26 c-85 35 -198 43 -269 20 -55 -19 -118 -78 -141 -133 -9 -22 -22 -34
-43 -38 -49 -11 -50 -68 14 515 17 157 35 295 39 308 10 26 5 27 179 -25z
m228 -834 c165 -83 312 -255 312 -363 0 -37 -30 -106 -46 -106 -3 0 -24 15
-47 34 -125 102 -205 92 -124 -15 85 -113 111 -186 105 -302 -6 -132 -61 -231
-178 -318 -62 -46 -81 -79 -60 -104 19 -22 46 -18 119 18 83 40 186 140 232
224 19 35 39 63 45 63 50 0 69 -93 35 -178 -60 -151 -200 -286 -372 -359 -57
-25 -76 -27 -184 -28 -118 0 -121 1 -196 36 -145 70 -210 160 -230 319 -5 47
-15 89 -20 95 -29 29 -76 -64 -86 -172 -3 -35 -10 -63 -14 -63 -17 0 -80 64
-104 104 -42 73 -58 158 -52 281 11 226 100 437 247 586 59 59 89 81 133 97
80 30 120 28 205 -13 40 -19 84 -36 99 -37 45 -5 40 25 -13 74 -74 68 -87 127
-36 166 33 26 135 9 230 -39z"/>
<path d="M5589 8510 c-125 -21 -202 -109 -169 -191 21 -51 56 -62 155 -48 167
24 308 -26 445 -158 86 -81 124 -95 136 -47 19 76 -32 190 -131 289 -81 81
-165 128 -270 150 -76 16 -97 17 -166 5z"/>
<path d="M4103 8459 c-142 -17 -296 -133 -363 -273 -48 -103 -43 -186 13 -186
11 0 53 32 97 74 127 122 262 172 394 148 35 -7 77 -12 93 -12 61 0 92 74 59
138 -44 85 -155 127 -293 111z"/>
<path d="M5561 7954 c-300 -81 -507 -487 -462 -908 22 -200 82 -339 195 -452
84 -84 153 -115 252 -116 67 0 107 15 211 80 147 92 355 125 471 73 45 -20 57
-22 79 -12 23 11 25 16 20 54 -10 77 -118 147 -225 147 -29 0 -33 3 -26 18 77
174 103 399 69 607 -60 370 -305 584 -584 509z m195 -171 c62 -21 140 -98 177
-173 36 -74 64 -188 72 -291 6 -94 10 -95 -60 11 -41 61 -87 90 -142 90 -55 0
-89 -17 -136 -69 -78 -87 -111 -190 -112 -351 0 -138 24 -221 86 -300 21 -27
39 -51 39 -53 0 -16 -69 -29 -125 -25 -141 12 -243 120 -297 316 -30 108 -29
332 1 447 79 302 288 469 497 398z m152 -523 c23 -28 30 -59 20 -95 -16 -58
-71 -73 -113 -30 -36 35 -31 111 9 137 21 15 66 8 84 -12z"/>
<path d="M4063 7911 c-121 -45 -228 -152 -304 -306 -170 -344 -131 -800 87
-1022 136 -139 316 -170 492 -86 80 39 198 158 244 248 159 311 135 761 -55
1010 -53 69 -91 101 -167 141 -73 37 -216 44 -297 15z m235 -170 c57 -29 108
-76 138 -126 38 -66 74 -160 88 -236 l13 -69 -35 40 c-42 50 -84 72 -134 72
-159 -2 -290 -277 -249 -518 21 -118 104 -254 156 -254 27 0 16 -17 -22 -36
-26 -12 -60 -18 -104 -18 -167 1 -299 143 -345 374 -21 108 -15 300 15 411 50
191 164 335 301 380 40 13 133 3 178 -20z m162 -491 c25 -25 27 -95 4 -128
-22 -32 -76 -30 -103 4 -61 78 30 193 99 124z"/>
<path d="M5854 6404 c-12 -3 -30 -14 -39 -24 -16 -18 -16 -21 4 -54 l22 -35
-73 -22 c-121 -36 -256 -67 -393 -91 -117 -20 -162 -23 -440 -23 -358 0 -475
13 -640 72 -141 49 -149 50 -179 20 -35 -36 -36 -88 -1 -116 27 -21 158 -73
212 -85 18 -4 35 -11 38 -16 3 -5 16 -53 30 -107 50 -195 171 -394 300 -491
130 -97 278 -138 474 -130 213 10 372 86 532 255 134 142 232 321 334 611 4
10 16 6 48 -13 48 -27 77 -31 95 -13 29 29 3 92 -67 163 -71 72 -183 115 -257
99z"/>
<path fill="#b92925" d="M3499 5195 c-60 -19 -134 -85 -165 -148 -33 -63 -75 -353 -135 -912
-50 -466 -54 -607 -21 -680 40 -87 107 -142 204 -165 67 -16 1272 -101 1623
-115 83 -3 236 -10 340 -16 516 -26 811 -39 1025 -45 226 -6 237 -5 293 16 79
30 136 76 175 140 51 85 45 46 117 765 19 193 45 433 56 535 12 102 19 215 16
252 -7 106 -63 185 -162 229 -55 24 -35 23 -565 39 -719 22 -1808 71 -2235
100 -283 19 -516 21 -566 5z m710 -405 c146 -12 225 -38 289 -95 64 -57 94
-125 100 -226 13 -214 -71 -387 -220 -454 -58 -26 -75 -29 -210 -33 -93 -3
-151 -9 -156 -16 -5 -6 -18 -87 -29 -179 -12 -93 -24 -171 -27 -174 -3 -4 -63
-2 -132 3 -131 10 -149 18 -140 59 4 19 18 142 90 806 19 169 37 312 41 319 8
13 144 9 394 -10z m901 -41 c234 -17 340 -50 433 -138 95 -89 123 -177 121
-391 -1 -123 -6 -171 -23 -235 -32 -119 -82 -217 -146 -284 -122 -128 -218
-150 -631 -143 -180 2 -189 6 -186 78 7 137 89 964 108 1086 8 50 14 50 324
27z m1116 -44 c153 -9 287 -18 298 -21 17 -6 18 -14 12 -103 -4 -53 -13 -107
-20 -121 l-12 -25 -177 2 c-175 2 -177 2 -182 -20 -7 -36 -22 -201 -19 -209 2
-3 67 -9 143 -13 76 -4 145 -11 152 -15 10 -7 11 -29 2 -109 -14 -146 -13
-145 -180 -138 -94 4 -135 2 -141 -6 -5 -7 -18 -102 -30 -211 -14 -136 -25
-201 -34 -207 -7 -5 -58 -9 -113 -9 -120 0 -145 11 -145 66 0 45 64 709 91
949 11 98 25 185 31 192 13 16 -12 16 324 -2z"/>
<path fill="#b92925" d="M4066 4539 c-2 -8 -9 -59 -15 -114 -6 -55 -13 -121 -17 -147 l-7 -48
84 0 c136 0 186 40 196 158 4 49 1 62 -19 92 -31 45 -63 60 -148 67 -54 5 -70
3 -74 -8z"/>
<path fill="#b92925" d="M5046 4481 c-4 -6 -11 -53 -17 -104 -28 -282 -49 -505 -49 -535 l0
-34 98 4 c114 5 160 24 216 90 57 66 81 156 81 303 0 106 -3 126 -24 168 -36
74 -92 102 -227 113 -48 5 -73 3 -78 -5z"/>
</g>
</svg>
