<svg width="64" height="64" viewBox="0 0 64 64" fill="none" xmlns="http://www.w3.org/2000/svg">
<path d="M36 12L32 8H16V56H48V24L44 20M36 12L40 16L44 20M36 12H44V20" stroke="black" stroke-width="4" stroke-linejoin="round"/>
<path d="M30.9393 45.0607C31.5251 45.6464 32.4749 45.6464 33.0607 45.0607L42.6066 35.5147C43.1924 34.9289 43.1924 33.9792 42.6066 33.3934C42.0208 32.8076 41.0711 32.8076 40.4853 33.3934L32 41.8787L23.5147 33.3934C22.9289 32.8076 21.9792 32.8076 21.3934 33.3934C20.8076 33.9792 20.8076 34.9289 21.3934 35.5147L30.9393 45.0607ZM32 19H30.5V44H32H33.5V19H32Z" fill="black"/>
</svg>
