<svg width="64" height="64" viewBox="0 0 64 64" fill="none" xmlns="http://www.w3.org/2000/svg">
<path d="M26 10H28C28 8.89543 27.1046 8 26 8V10ZM26 54V56C27.1046 56 28 55.1046 28 54H26ZM4 10V12H26V10V8H4V10ZM26 10H24V54H26H28V10H26ZM26 54V52H4V54V56H26V54Z" fill="black"/>
<path d="M38 10V8C36.8954 8 36 8.89543 36 10H38ZM38 54H36C36 55.1046 36.8954 56 38 56V54ZM38 10V12H60V10V8H38V10ZM60 54V52H38V54V56H60V54ZM38 54H40V10H38H36V54H38Z" fill="black"/>
<line x1="32" y1="2" x2="32" y2="62" stroke="black" stroke-width="4"/>
</svg>
